<svg width="11" height="15" fill="none" xmlns="http://www.w3.org/2000/svg"><path d="M4.656 14.6a.39.39 0 0 1-.288-.112.39.39 0 0 1-.112-.288v-1.104c-.821-.107-1.51-.315-2.064-.624-.544-.31-.955-.683-1.232-1.12a2.88 2.88 0 0 1-.448-1.408c0-.085.032-.16.096-.224a.352.352 0 0 1 .256-.112H2.88c.15 0 .261.027.336.08.075.053.15.123.224.208.085.16.203.315.352.464.16.15.363.272.608.368.256.085.57.128.944.128.619 0 1.083-.096 1.392-.288.32-.192.48-.453.48-.784a.73.73 0 0 0-.256-.576c-.17-.16-.448-.299-.832-.416a12.512 12.512 0 0 0-1.504-.384c-.81-.17-1.504-.39-2.08-.656-.565-.277-.997-.635-1.296-1.072C.949 6.232.8 5.677.8 5.016c0-.853.304-1.579.912-2.176.619-.597 1.467-.97 2.544-1.12V.6a.39.39 0 0 1 .112-.288A.39.39 0 0 1 4.656.2h1.328a.37.37 0 0 1 .272.112c.085.075.128.17.128.288v1.152c.736.128 1.355.357 1.856.688.501.33.88.704 1.136 1.12.267.416.405.816.416 1.2a.363.363 0 0 1-.096.24.326.326 0 0 1-.24.096H7.344a.673.673 0 0 1-.304-.064.59.59 0 0 1-.224-.208c-.064-.235-.235-.437-.512-.608-.277-.181-.635-.272-1.072-.272-.459 0-.821.085-1.088.256-.267.16-.4.41-.4.752 0 .213.07.4.208.56.15.16.395.299.736.416.341.117.805.24 1.392.368.97.181 1.755.41 2.352.688.597.267 1.035.619 1.312 1.056.277.427.416.965.416 1.616 0 .63-.16 1.184-.48 1.664-.31.48-.747.87-1.312 1.168-.565.299-1.227.496-1.984.592v1.12a.365.365 0 0 1-.128.288.37.37 0 0 1-.272.112H4.656Z" fill="#2959CE"/></svg>