<svg width="10" height="12" fill="none" xmlns="http://www.w3.org/2000/svg"><path d="M.632 12a.37.37 0 0 1-.272-.112.37.37 0 0 1-.112-.272V1.2A.39.39 0 0 1 .36.912.37.37 0 0 1 .632.8H4.92c.832 0 1.557.133 2.176.4a3.04 3.04 0 0 1 1.44 1.184c.341.523.512 1.179.512 1.968 0 .8-.17 1.461-.512 1.984-.341.512-.821.896-1.44 1.152-.619.256-1.344.384-2.176.384H2.536v3.744a.37.37 0 0 1-.112.272.339.339 0 0 1-.272.112H.632Zm1.872-5.904H4.84c.619 0 1.093-.144 1.424-.432.33-.299.496-.736.496-1.312 0-.533-.155-.96-.464-1.28-.31-.33-.795-.496-1.456-.496H2.504v3.52Z" fill="#2959CE"/></svg>